<svg width="48" height="48" viewBox="0 0 48 48" fill="none" xmlns="http://www.w3.org/2000/svg">
<path d="M0 6.6C0 4.84957 0.695355 3.17084 1.9331 1.9331C3.17084 0.695355 4.84957 0 6.6 0H36.6C38.3504 0 40.0292 0.695355 41.2669 1.9331C42.5046 3.17084 43.2 4.84957 43.2 6.6V21.6528C41.7255 20.7099 40.1028 20.0219 38.4 19.6176V6.6C38.4 6.12261 38.2104 5.66477 37.8728 5.32721C37.5352 4.98964 37.0774 4.8 36.6 4.8H6.6C6.12261 4.8 5.66477 4.98964 5.32721 5.32721C4.98964 5.66477 4.8 6.12261 4.8 6.6V36.6C4.8 37.5936 5.6064 38.4 6.6 38.4H19.6176C20.0256 40.128 20.7216 41.748 21.6528 43.2H6.6C4.84957 43.2 3.17084 42.5046 1.9331 41.2669C0.695355 40.0292 0 38.3504 0 36.6V6.6ZM48 34.8C48 31.2991 46.6093 27.9417 44.1338 25.4662C41.6583 22.9907 38.3009 21.6 34.8 21.6C31.2991 21.6 27.9417 22.9907 25.4662 25.4662C22.9907 27.9417 21.6 31.2991 21.6 34.8C21.6 38.3009 22.9907 41.6583 25.4662 44.1338C27.9417 46.6093 31.2991 48 34.8 48C38.3009 48 41.6583 46.6093 44.1338 44.1338C46.6093 41.6583 48 38.3009 48 34.8ZM36 36L36.0024 42.0072C36.0024 42.3255 35.876 42.6307 35.6509 42.8557C35.4259 43.0808 35.1207 43.2072 34.8024 43.2072C34.4841 43.2072 34.1789 43.0808 33.9539 42.8557C33.7288 42.6307 33.6024 42.3255 33.6024 42.0072V36H27.5904C27.2721 36 26.9669 35.8736 26.7419 35.6485C26.5168 35.4235 26.3904 35.1183 26.3904 34.8C26.3904 34.4817 26.5168 34.1765 26.7419 33.9515C26.9669 33.7264 27.2721 33.6 27.5904 33.6H33.6V27.6C33.6 27.2817 33.7264 26.9765 33.9515 26.7515C34.1765 26.5264 34.4817 26.4 34.8 26.4C35.1183 26.4 35.4235 26.5264 35.6485 26.7515C35.8736 26.9765 36 27.2817 36 27.6V33.6H41.9928C42.3111 33.6 42.6163 33.7264 42.8413 33.9515C43.0664 34.1765 43.1928 34.4817 43.1928 34.8C43.1928 35.1183 43.0664 35.4235 42.8413 35.6485C42.6163 35.8736 42.3111 36 41.9928 36H36Z" fill="white"/>
</svg>
