<svg width="48" height="48" viewBox="0 0 48 48" fill="none" xmlns="http://www.w3.org/2000/svg">
<path d="M43.6364 7.632L18.7418 35.04L9.49091 24.864L12.5673 21.48L18.7418 28.272L40.56 4.272L43.6364 7.632ZM21.8182 43.2C12.1964 43.2 4.36364 34.584 4.36364 24C4.36364 13.416 12.1964 4.8 21.8182 4.8C25.2436 4.8 28.4509 5.904 31.1564 7.8L34.32 4.32C30.6536 1.50491 26.2894 -0.00312415 21.8182 4.85941e-06C9.77455 4.85941e-06 0 10.752 0 24C0 37.248 9.77455 48 21.8182 48C25.5927 48 29.1491 46.944 32.2473 45.072L28.9745 41.472C26.7927 42.576 24.3709 43.2 21.8182 43.2ZM37.0909 31.2H30.5455V36H37.0909V43.2H41.4545V36H48V31.2H41.4545V24H37.0909V31.2Z" fill="#06C270"/>
</svg>
