<svg width="24" height="25" viewBox="0 0 24 25" fill="none" xmlns="http://www.w3.org/2000/svg">
<path d="M11.6475 0.25C11.9364 0.249972 12.2208 0.29565 12.4756 0.382981C12.7303 0.470311 12.9475 0.596594 13.1078 0.750625L23.295 10.546L14.1206 12.9963L11.9968 3.00962C11.9406 2.75087 11.3544 2.75087 11.3 3.00962L9.17619 12.9963L0 10.546L10.1872 0.750625C10.3475 0.596594 10.5647 0.470311 10.8194 0.382981C11.0742 0.29565 11.3586 0.249972 11.6475 0.25ZM12.3233 15.9134L22.535 13.1864L13.1096 22.2494C12.9494 22.4037 12.7321 22.5302 12.4772 22.6178C12.2223 22.7053 11.9376 22.7511 11.6484 22.7511C11.3592 22.7511 11.0745 22.7053 10.8196 22.6178C10.5646 22.5302 10.3474 22.4037 10.1872 22.2494L0.761757 13.1864L10.9718 15.9134C11.1859 15.9706 11.4155 16.0001 11.6475 16.0001C11.8795 16.0001 12.1092 15.9706 12.3233 15.9134Z" fill="#E6E6E6"/>
</svg>
