<svg width="37" height="50" viewBox="0 0 37 50" fill="none" xmlns="http://www.w3.org/2000/svg">
<path d="M35.8899 36.604C34.8241 28.7525 31.7784 21.5161 27.1864 15.9256C26.1811 14.7184 25.6794 14.116 24.5691 13.5592C23.4588 13 22.504 13 20.5965 13H16.4042C14.4967 13 13.5419 13 12.4316 13.5592C11.3232 14.116 10.8177 14.7184 9.81432 15.9256C5.22233 21.5161 2.17657 28.7525 1.1108 36.604C0.163834 43.6552 5.43339 49 11.3213 49H25.6794C31.5693 49 36.8408 43.6552 35.888 36.604" stroke="white" stroke-width="1.5" stroke-linecap="round" stroke-linejoin="round"/>
<path d="M21.6641 27.2056C21.2441 25.288 19.1032 23.56 16.5345 24.8536C13.9658 26.1472 13.5594 30.3064 17.4426 30.7504C19.2004 30.9496 20.3438 30.5176 21.3918 31.7392C22.4419 32.9584 22.6363 36.3544 19.9549 37.2688C17.2773 38.1832 14.6231 36.7552 14.3353 34.7248M18.1932 22.5808V24.4072M18.1932 37.5496V39.3832M9.27767 6.8632C8.87517 6.1432 8.29376 5.164 9.49546 4.9432C10.7302 4.7128 12.0116 5.7544 13.2678 5.7352C14.4014 5.7136 14.9789 5.092 15.6011 4.204C16.2545 3.2704 17.2656 1 18.5004 1C19.7351 1 20.7463 3.2704 21.3996 4.204C22.0218 5.092 22.5994 5.716 23.733 5.7328C24.9891 5.7568 26.2706 4.7128 27.5053 4.9408C28.707 5.164 28.1256 6.1408 27.7231 6.8608L25.9108 10.1224C25.133 11.5144 24.7461 12.2104 23.9333 12.6064C23.1205 13.0024 22.0724 13 19.9743 13H17.0265C14.9264 13 13.8783 13 13.0675 12.6064C12.2566 12.2128 11.8677 11.512 11.0899 10.12L9.27767 6.8632Z" stroke="white" stroke-width="1.5" stroke-linecap="round" stroke-linejoin="round"/>
</svg>
