<svg width="40" height="48" viewBox="0 0 40 48" fill="none" xmlns="http://www.w3.org/2000/svg">
<g clip-path="url(#clip0_13_2)">
<path fill-rule="evenodd" clip-rule="evenodd" d="M25.7286 24.8914C25.3978 23.8512 24.7849 22.9507 23.9744 22.3138C23.1639 21.6769 22.1956 21.3349 21.2029 21.3351V20.0017H18.8033V21.3351C17.5304 21.3351 16.3097 21.8971 15.4097 22.8973C14.5097 23.8976 14.004 25.2543 14.004 26.6689C14.004 28.0835 14.5097 29.4402 15.4097 30.4404C16.3097 31.4407 17.5304 32.0027 18.8033 32.0027V37.3364C17.7594 37.3364 16.8704 36.5964 16.5392 35.559C16.4901 35.3892 16.4108 35.2322 16.3061 35.0971C16.2014 34.962 16.0734 34.8516 15.9297 34.7725C15.7859 34.6933 15.6294 34.647 15.4692 34.6363C15.3091 34.6256 15.1486 34.6507 14.9974 34.7101C14.8461 34.7695 14.7071 34.862 14.5886 34.9821C14.47 35.1022 14.3744 35.2476 14.3073 35.4095C14.2402 35.5715 14.203 35.7467 14.1979 35.9249C14.1928 36.1031 14.2199 36.2807 14.2776 36.447C14.6084 37.4872 15.2213 38.3878 16.0318 39.0247C16.8423 39.6616 17.8106 40.0035 18.8033 40.0033V41.3368H21.2029V40.0033C22.4758 40.0033 23.6965 39.4414 24.5965 38.4411C25.4965 37.4408 26.0022 36.0842 26.0022 34.6696C26.0022 33.2549 25.4965 31.8983 24.5965 30.898C23.6965 29.8977 22.4758 29.3358 21.2029 29.3358V24.002C21.6992 24.0019 22.1833 24.1727 22.5885 24.4911C22.9938 24.8094 23.3003 25.2595 23.4658 25.7795C23.5717 26.113 23.7925 26.386 24.0797 26.5386C24.2218 26.6141 24.376 26.6578 24.5333 26.6671C24.6907 26.6764 24.8481 26.6512 24.9967 26.5929C25.1453 26.5346 25.2821 26.4443 25.3993 26.3272C25.5165 26.2102 25.6118 26.0686 25.6797 25.9106C25.7477 25.7526 25.787 25.5813 25.7954 25.4064C25.8038 25.2315 25.7811 25.0565 25.7286 24.8914ZM18.8033 24.002C18.1669 24.002 17.5565 24.283 17.1065 24.7831C16.6565 25.2833 16.4037 25.9616 16.4037 26.6689C16.4037 27.3762 16.6565 28.0545 17.1065 28.5547C17.5565 29.0548 18.1669 29.3358 18.8033 29.3358V24.002ZM21.2029 37.3364C21.8393 37.3364 22.4497 37.0555 22.8997 36.5553C23.3497 36.0552 23.6025 35.3769 23.6025 34.6696C23.6025 33.9623 23.3497 33.2839 22.8997 32.7838C22.4497 32.2836 21.8393 32.0027 21.2029 32.0027V37.3364Z" fill="#06C270"/>
<path fill-rule="evenodd" clip-rule="evenodd" d="M6.98874 3.49496C9.93308 1.89349 14.7635 0 20.0499 0C25.2259 0 29.9292 1.81482 32.8579 3.39495L33.0235 3.48429C33.9066 3.96966 34.6192 4.42837 35.1208 4.8004L30.6887 12.001C40.9063 23.61 48.7986 48 20.0499 48C-8.69882 48 -1.01882 24.0527 9.28758 12.001L4.88427 4.8004C5.22382 4.55371 5.65455 4.26702 6.16807 3.963C6.42243 3.81098 6.69599 3.65408 6.98874 3.49496ZM27.8403 11.9063L31.3881 6.14184C28.0887 6.40587 24.1629 7.26727 20.3835 8.48337C17.6839 9.35011 14.6843 9.2181 11.9068 8.64872C11.2068 8.50469 10.5117 8.33301 9.8227 8.13401L12.1263 11.9037C17.0636 13.8572 22.9019 13.8572 27.8403 11.9063ZM10.7406 14.1745C16.5177 16.6547 23.461 16.6547 29.2381 14.1718C31.6489 16.9976 33.6661 20.208 35.2228 23.6966C36.8449 27.3743 37.728 31.0506 37.584 34.2188C37.4448 37.2764 36.3626 39.8887 33.891 41.8301C31.315 43.853 26.9824 45.3331 20.0487 45.3331C13.1078 45.3331 8.75487 43.8783 6.15487 41.8782C3.66526 39.962 2.57223 37.3844 2.41745 34.3682C2.25548 31.2346 3.11934 27.577 4.73549 23.874C6.27725 20.343 8.42852 16.9441 10.7406 14.1745ZM9.36077 5.22177C10.3206 5.53913 11.3237 5.81515 12.3411 6.0245C14.9207 6.55255 17.5075 6.62989 19.7152 5.91916C22.2877 5.08589 24.9044 4.4308 27.5499 3.95766C25.3423 3.21894 22.7603 2.66689 20.0487 2.66689C15.9154 2.66689 12.0604 3.94833 9.36077 5.22177Z" fill="#06C270"/>
</g>
<defs>
<clipPath id="clip0_13_2">
<rect width="40" height="48" fill="white"/>
</clipPath>
</defs>
</svg>
