<svg width="26" height="24" viewBox="0 0 26 24" fill="none" xmlns="http://www.w3.org/2000/svg">
<path d="M22.277 17.3063C21.2682 15.9513 19.8283 14.9808 18.1946 14.5545L18.1437 14.5435L16.9666 16.5319C16.9658 16.7967 16.8604 17.0504 16.6733 17.2376C16.4862 17.4248 16.2328 17.5303 15.9682 17.5311C15.4191 17.5311 14.9698 17.0815 14.4457 15.7585V15.7265C14.4457 15.3953 14.3142 15.0776 14.0801 14.8434C13.8461 14.6091 13.5287 14.4775 13.1977 14.4775C12.8667 14.4775 12.5493 14.6091 12.3152 14.8434C12.0812 15.0776 11.9497 15.3953 11.9497 15.7265V15.7595V15.7575C11.3906 17.0815 10.9373 17.5301 10.3892 17.5301C10.1247 17.5293 9.87119 17.4238 9.68412 17.2366C9.49706 17.0494 9.39162 16.7957 9.39083 16.5309L8.25067 14.5385C6.60557 14.9573 5.15243 15.9252 4.13133 17.2823L4.11735 17.3013C3.71365 17.9643 3.48836 18.7206 3.46341 19.4966V19.5036C3.4684 19.6534 3.46341 19.8283 3.46341 20.0032V22.0016C3.46341 22.5316 3.67378 23.0399 4.04825 23.4147C4.42271 23.7895 4.9306 24 5.46018 24H20.9352C21.4648 24 21.9726 23.7895 22.3471 23.4147C22.7216 23.0399 22.932 22.5316 22.932 22.0016V20.0032C22.932 19.8293 22.927 19.6534 22.932 19.5036C22.9078 18.7184 22.6786 17.9532 22.267 17.2843L22.278 17.3043L22.277 17.3063ZM7.95515 5.3108C7.95515 8.22849 9.77221 12.5151 13.1967 12.5151C16.5612 12.5151 18.4382 8.22849 18.4382 5.3108V5.24585C18.4382 4.55695 18.3026 3.8748 18.0392 3.23835C17.7758 2.60189 17.3897 2.0236 16.903 1.53647C16.4163 1.04935 15.8385 0.662945 15.2025 0.399316C14.5666 0.135688 13.885 0 13.1967 0C12.5084 0 11.8268 0.135688 11.1908 0.399316C10.5549 0.662945 9.97708 1.04935 9.49036 1.53647C9.00364 2.0236 8.61755 2.60189 8.35414 3.23835C8.09073 3.8748 7.95515 4.55695 7.95515 5.24585V5.31379V5.3108ZM19.171 7.02944C19.171 8.92993 20.3551 11.7237 22.5855 11.7237C24.777 11.7237 26 8.93093 26 7.02944V6.97748C26 6.07089 25.6402 5.20143 24.9996 4.56038C24.3591 3.91932 23.4904 3.55918 22.5845 3.55918C21.6787 3.55918 20.8099 3.91932 20.1694 4.56038C19.5289 5.20143 19.169 6.07089 19.169 6.97748V7.03243V7.02944H19.171ZM0.00199677 8.62817C0.00199677 10.5287 1.18608 13.3225 3.41648 13.3225C5.60794 13.3225 6.83097 10.5297 6.83097 8.62817V8.57621C6.83097 7.66962 6.47112 6.80017 5.83059 6.15911C5.19007 5.51806 4.32132 5.15792 3.41548 5.15792C2.50964 5.15792 1.6409 5.51806 1.00037 6.15911C0.359844 6.80017 0 7.66962 0 8.57621L0 8.63117V8.62817H0.00199677Z" fill="#E6E6E6"/>
</svg>
